# xmcd CD database file
#
# Track frame offsets:
#	150
#	19989
#	44046
#	71615
#	92952
#	115629
#	127746
#	142456
#	162006
#	180233
#	197395
#	229725
#	252323
#	267599
#	288613
#	312446
#
# Disc length: 4551 seconds
#
# Revision: 1
# Processed by: cddbd v1.5.2PL0 Copyright (c) Steve Scherf et al.
# Submitted via: CDex 1.70beta2
#
DISCID=ec11c510
DTITLE=Various Artist - Indian Rezervation Blues And More - [CD2]
DYEAR=2009
DGENRE=Blues
TTITLE0=Keith Secola - 4R Ancestors
TTITLE1=Alex Jacobs - Indian List
TTITLE2=Indigenous - Leaving
TTITLE3=Aron White (Blue Stone Project) - John Doe
TTITLE4=Corn-Bred - General Sullivan
TTITLE5=Art Napoleon - Hunting Chant
TTITLE6=Star Nayea - Silenced My Tongue
TTITLE7=Derek Miller - Mystery Train (The Lonely Heart Club)
TTITLE8=Cary Morin - Lacrosse
TTITLE9=Quese IMC - Good Ol' Amerikka
TTITLE10=Butch Mudbone - It Was In The Old Times
TTITLE11=Faron "Pappy" Johns - Thru The Door
TTITLE12=Sandy Scofield - Layla's Lullaby (Kawapimtim)
TTITLE13=Tonemah - There's A Train
TTITLE14=Keith Secola - 4R Ancestors
TTITLE15=DATA
EXTD=YEAR: 2009
EXTT0=
EXTT1=
EXTT2=
EXTT3=
EXTT4=
EXTT5=
EXTT6=
EXTT7=
EXTT8=
EXTT9=
EXTT10=
EXTT11=
EXTT12=
EXTT13=
EXTT14=
EXTT15=
PLAYORDER=
